<?xml version="1.0" encoding="UTF-8" standalone="no"?>
<!-- Created with Inkscape (http://www.inkscape.org/) -->

<svg
   xmlns:dc="http://purl.org/dc/elements/1.1/"
   xmlns:cc="http://creativecommons.org/ns#"
   xmlns:rdf="http://www.w3.org/1999/02/22-rdf-syntax-ns#"
   xmlns:svg="http://www.w3.org/2000/svg"
   xmlns="http://www.w3.org/2000/svg"
   xmlns:sodipodi="http://sodipodi.sourceforge.net/DTD/sodipodi-0.dtd"
   xmlns:inkscape="http://www.inkscape.org/namespaces/inkscape"
   width="210mm"
   height="297mm"
   viewBox="0 0 210 297"
   version="1.1"
   id="svg8"
   inkscape:version="0.92.4 (5da689c313, 2019-01-14)"
   sodipodi:docname="office-plan.svg">
  <defs
     id="defs2" />
  <sodipodi:namedview
     id="base"
     pagecolor="#ffffff"
     bordercolor="#666666"
     borderopacity="1.0"
     inkscape:pageopacity="0.0"
     inkscape:pageshadow="2"
     inkscape:zoom="0.7"
     inkscape:cx="757.28943"
     inkscape:cy="578.8255"
     inkscape:document-units="mm"
     inkscape:current-layer="layer1"
     showgrid="false"
     inkscape:window-width="1920"
     inkscape:window-height="1017"
     inkscape:window-x="-8"
     inkscape:window-y="-8"
     inkscape:window-maximized="1" />
  <metadata
     id="metadata5">
    <rdf:RDF>
      <cc:Work
         rdf:about="">
        <dc:format>image/svg+xml</dc:format>
        <dc:type
           rdf:resource="http://purl.org/dc/dcmitype/StillImage" />
        <dc:title />
      </cc:Work>
    </rdf:RDF>
  </metadata>
  <g
     inkscape:label="Vrstva 1"
     inkscape:groupmode="layer"
     id="layer1">
    <rect
       id="rect3713"
       width="209.77678"
       height="297.08929"
       x="0.37797621"
       y="0.21309504"
       style="fill:#bc221d;fill-opacity:1;stroke-width:0.26458332" />
    <path
       style="fill:none;stroke:#ffffff;stroke-width:2.065;stroke-linecap:butt;stroke-linejoin:miter;stroke-opacity:1;stroke-miterlimit:4;stroke-dasharray:none"
       d="M 22.678571,0.28869031 V 53.205356 H 79.374999 V 99.696427 H 47.247024 V 42.999998 H 108.85714 V 152.99107 h 51.78274 V 128.04464 H 68.035714 v 71.05952 h 58.208336 v -98.65178 h 13.60714 V 86.089285 h 22.67857 v 24.568455 h 28.34821 v 63.87797 H 93.360117 V 249.375 H 46.113094 V 210.06547 H 167.82143 V -0.08928587"
       id="path4524"
       inkscape:connector-curvature="0" />
    <path
       style="fill:none;stroke:#ffffff;stroke-width:2.065;stroke-linecap:butt;stroke-linejoin:miter;stroke-opacity:1;stroke-miterlimit:4;stroke-dasharray:none"
       d="M 69.547617,0.28869031 V 73.238094 H 24.946428 v 85.800596 h 52.538689 v 80.8869 H 19.654762 V 134.84821 h 48.380952"
       id="path4526"
       inkscape:connector-curvature="0" />
    <path
       style="fill:none;stroke:#ffffff;stroke-width:2.065;stroke-linecap:butt;stroke-linejoin:miter;stroke-opacity:1;stroke-miterlimit:4;stroke-dasharray:none"
       d="M 116.41667,-0.08928587 V 48.669643 H 96.383926 V 149.21131 H 48.758927 v 27.97023 h 7.559524 v 11.71727 h 4.913691 v 40.44345 h 80.508928 v -39.30952 h -32.50595 v -22.67858 h 71.4375 v 74.83929 h 28.34821"
       id="path4528"
       inkscape:connector-curvature="0" />
    <text
       xml:space="preserve"
       style="font-style:normal;font-variant:normal;font-weight:normal;font-stretch:normal;font-size:7.76111126px;line-height:1.25;font-family:sans-serif;-inkscape-font-specification:'sans-serif, Normal';font-variant-ligatures:normal;font-variant-caps:normal;font-variant-numeric:normal;font-feature-settings:normal;text-align:start;letter-spacing:0px;word-spacing:0px;writing-mode:lr-tb;text-anchor:start;fill:#ffffff;fill-opacity:1;stroke:none;stroke-width:0.26458332"
       x="191.63394"
       y="251.64287"
       id="text4532"><tspan
         sodipodi:role="line"
         id="tspan4530"
         x="191.63394"
         y="251.64287"
         style="font-style:normal;font-variant:normal;font-weight:normal;font-stretch:normal;font-size:7.76111126px;font-family:sans-serif;-inkscape-font-specification:'sans-serif, Normal';font-variant-ligatures:normal;font-variant-caps:normal;font-variant-numeric:normal;font-feature-settings:normal;text-align:start;writing-mode:lr-tb;text-anchor:start;fill:#ffffff;fill-opacity:1;stroke-width:0.26458332">Exit</tspan></text>
    <text
       xml:space="preserve"
       style="font-style:normal;font-weight:normal;font-size:7.76111111px;line-height:1.25;font-family:sans-serif;letter-spacing:0px;word-spacing:0px;fill:#ffffff;fill-opacity:1;stroke:none;stroke-width:0.26458332;-inkscape-font-specification:'sans-serif, Normal';font-stretch:normal;font-variant:normal;text-anchor:start;text-align:start;writing-mode:lr;font-variant-ligatures:normal;font-variant-caps:normal;font-variant-numeric:normal;font-feature-settings:normal;"
       x="45.357143"
       y="116.32738"
       id="text4536"><tspan
         sodipodi:role="line"
         id="tspan4534"
         x="45.357143"
         y="116.32738"
         style="fill:#ffffff;fill-opacity:1;stroke-width:0.26458332;-inkscape-font-specification:'sans-serif, Normal';font-family:sans-serif;font-weight:normal;font-style:normal;font-stretch:normal;font-variant:normal;font-size:7.76111111px;text-anchor:start;text-align:start;writing-mode:lr;font-variant-ligatures:normal;font-variant-caps:normal;font-variant-numeric:normal;font-feature-settings:normal;">Kitchen</tspan></text>
    <text
       xml:space="preserve"
       style="font-style:normal;font-weight:normal;font-size:7.76111111px;line-height:1.25;font-family:sans-serif;letter-spacing:0px;word-spacing:0px;fill:#ffffff;fill-opacity:1;stroke:none;stroke-width:0.26458332;-inkscape-font-specification:'sans-serif, Normal';font-stretch:normal;font-variant:normal;text-anchor:start;text-align:start;writing-mode:lr;font-variant-ligatures:normal;font-variant-caps:normal;font-variant-numeric:normal;font-feature-settings:normal;"
       x="139.09523"
       y="119.35119"
       id="text4540"><tspan
         sodipodi:role="line"
         id="tspan4538"
         x="139.09523"
         y="119.35119"
         style="fill:#ffffff;fill-opacity:1;stroke-width:0.26458332;-inkscape-font-specification:'sans-serif, Normal';font-family:sans-serif;font-weight:normal;font-style:normal;font-stretch:normal;font-variant:normal;font-size:7.76111111px;text-anchor:start;text-align:start;writing-mode:lr;font-variant-ligatures:normal;font-variant-caps:normal;font-variant-numeric:normal;font-feature-settings:normal;">HR</tspan></text>
    <text
       xml:space="preserve"
       style="font-style:normal;font-variant:normal;font-weight:normal;font-stretch:normal;font-size:7.76111126px;line-height:1.25;font-family:sans-serif;-inkscape-font-specification:'sans-serif, Normal';font-variant-ligatures:normal;font-variant-caps:normal;font-variant-numeric:normal;font-feature-settings:normal;text-align:start;letter-spacing:0px;word-spacing:0px;writing-mode:lr-tb;text-anchor:start;fill:#ffffff;fill-opacity:1;stroke:none;stroke-width:0.26458332"
       x="100.91964"
       y="222.5387"
       id="text4544"><tspan
         sodipodi:role="line"
         id="tspan4542"
         x="100.91964"
         y="222.5387"
         style="font-style:normal;font-variant:normal;font-weight:normal;font-stretch:normal;font-size:7.76111126px;font-family:sans-serif;-inkscape-font-specification:'sans-serif, Normal';font-variant-ligatures:normal;font-variant-caps:normal;font-variant-numeric:normal;font-feature-settings:normal;text-align:start;writing-mode:lr-tb;text-anchor:start;fill:#ffffff;fill-opacity:1;stroke-width:0.26458332">DevOps</tspan></text>
    <flowRoot
       xml:space="preserve"
       id="flowRoot4546"
       style="font-style:normal;font-weight:normal;font-size:40px;line-height:1.25;font-family:sans-serif;letter-spacing:0px;word-spacing:0px;fill:#000000;fill-opacity:1;stroke:none"
       transform="scale(0.26458333)"><flowRegion
         id="flowRegion4548"><rect
           id="rect4550"
           width="54.285717"
           height="300"
           x="94.285713"
           y="601.09113" /></flowRegion><flowPara
         id="flowPara4552">DragonD</flowPara></flowRoot>    <text
       xml:space="preserve"
       style="font-style:normal;font-weight:normal;font-size:7.76111111px;line-height:1.25;font-family:sans-serif;letter-spacing:0px;word-spacing:0px;fill:#ffffff;fill-opacity:1;stroke:none;stroke-width:0.26458332;-inkscape-font-specification:'sans-serif, Normal';font-stretch:normal;font-variant:normal;text-anchor:start;text-align:start;writing-mode:lr;font-variant-ligatures:normal;font-variant-caps:normal;font-variant-numeric:normal;font-feature-settings:normal;"
       x="85.800598"
       y="165.84227"
       id="text4564"><tspan
         sodipodi:role="line"
         id="tspan4562"
         x="85.800598"
         y="165.84227"
         style="stroke-width:0.26458332;fill:#ffffff;fill-opacity:1;-inkscape-font-specification:'sans-serif, Normal';font-family:sans-serif;font-weight:normal;font-style:normal;font-stretch:normal;font-variant:normal;font-size:7.76111111px;text-anchor:start;text-align:start;writing-mode:lr;font-variant-ligatures:normal;font-variant-caps:normal;font-variant-numeric:normal;font-feature-settings:normal;">QA</tspan></text>
    <g
       transform="matrix(0.04815534,0,0,0.06007341,34.21239,142.95574)"
       id="layer1-4"
       inkscape:label="Livello 1"
       style="fill:#aad400">
      <path
         inkscape:connector-curvature="0"
         id="path3026"
         d="m 261.62629,1041.2464 c -4.70047,-2.9481 -16.92792,-11.5159 -27.1721,-19.0396 -19.00897,-13.9608 -38.39484,-23.7262 -52.69418,-26.5439 -11.86015,-2.337 -7.11983,-5.74109 7.99471,-5.74109 26.63874,0 17.45873,-7.14862 -21.43243,-16.68969 -29.528,-7.24405 -40.18853,-12.16765 -51.58263,-23.82371 -15.07896,-15.42561 -17.71661,-21.88737 -17.70742,-43.38003 0.0128,-29.6809 10.1692,-43.77675 33.68943,-46.75621 22.32089,-2.82755 29.33101,0.98464 66.84637,36.35166 41.09634,38.74296 55.0494,46.68838 81.965,46.67429 26.78935,-0.0136 40.17568,-10.82662 40.17568,-32.45124 0,-11.59428 -5.8796,-26.49239 -10.45535,-26.49239 -1.24764,0 -3.29581,1.69667 -4.55149,3.77041 -2.04548,3.37809 -2.44764,3.29124 -3.86454,-0.83465 -1.87328,-5.45488 -10.6739,-13.31156 -12.75573,-11.38754 -0.80085,0.74018 -0.15333,4.99416 1.43903,9.4533 4.62229,12.94419 1.60855,14.21651 -5.10697,2.15605 -5.93754,-10.66335 -17.26616,-19.47049 -20.82,-16.18603 -0.94548,0.87386 0.058,6.9686 2.22964,13.54395 7.58803,22.9736 6.88553,25.90217 -2.17196,9.05418 -4.90995,-9.1331 -12.44551,-19.13966 -16.87107,-22.40325 -9.74846,-7.18897 -48.39228,-21.70832 -51.1049,-19.20129 -1.07461,0.99316 1.42039,7.73413 5.54446,14.97993 4.12409,7.24578 7.03193,13.6052 6.46192,14.13203 -0.57003,0.5268 -4.79667,-2.51744 -9.39255,-6.76499 -5.55105,-5.13033 -11.31248,-14.85922 -17.16286,-28.98158 -4.8437,-11.6923 -10.02582,-21.63431 -11.51582,-22.09333 -1.76838,-0.54478 -2.7091,3.71881 -2.7091,12.27848 0,16.2088 -4.11984,14.00011 -7.17212,-3.84503 -1.93506,-11.31344 -0.96178,-23.97591 3.51537,-45.73521 2.36035,-11.47148 -3.24665,-11.47148 -10.76402,0 l -5.57193,8.50271 1.45927,-7.88145 c 2.07722,-11.21896 9.50371,-24.40193 20.92602,-37.14637 10.86376,-12.12123 11.74314,-14.53744 6.02856,-16.56413 -6.33669,-2.24732 -15.42635,3.88303 -28.42664,19.17183 -6.76168,7.95198 -12.83159,13.96125 -13.48867,13.35397 -0.65709,-0.60728 1.15481,-5.36056 4.02645,-10.56282 5.27345,-9.55339 5.81073,-14.87431 1.19973,-11.88147 -1.37943,0.89533 -7.94185,7.74983 -14.58314,15.23222 -15.37885,17.32652 -33.692155,35.14452 -36.121448,35.14452 -1.032459,0 4.314322,-8.92784 11.881738,-19.83966 7.5674,-10.9118 18.00935,-25.96159 23.20431,-33.44397 9.36888,-13.49416 9.01011,-19.07508 -0.70734,-11.00279 -2.78119,2.31034 -14.52977,15.90188 -26.10795,30.20344 -24.055078,29.7132 -35.891505,42.32372 -43.048361,45.86366 -3.598699,1.77998 -2.455633,-0.63669 4.077925,-8.62164 12.369478,-15.1173 50.098296,-68.97576 52.245876,-74.58179 3.90898,-10.20399 -16.781608,12.04425 -38.721975,41.6371 -23.829893,32.14144 -47.675771,57.5066 -60.628717,64.49153 -10.5484909,5.6883 -9.4840447,1.90812 2.46036,-8.73759 9.581085,-8.53935 28.423304,-33.82923 63.54358,-85.2877 20.257712,-29.68173 49.519932,-57.60111 69.919832,-66.71122 31.54819,-14.08866 65.02072,-9.04563 91.51187,13.78735 14.6744,12.64801 15.72186,17.37083 2.75136,12.40547 -4.23899,-1.62278 -12.72712,-2.95048 -18.86255,-2.95048 -9.48488,0 -12.22039,1.10167 -18.26804,7.35719 -5.60865,5.8014 -6.95414,9.11778 -6.36274,15.68278 0.72152,8.00934 1.07483,8.30096 9.30177,7.67758 10.67825,-0.80911 14.10516,-3.68098 9.93448,-8.32547 -3.89364,-4.33597 -0.75966,-4.58909 13.02374,-1.05186 10.82673,2.77846 13.58542,1.56082 8.72543,-3.85128 -3.06008,-3.40772 -2.7906,-3.60966 2.71706,-2.03592 3.36275,0.96085 12.18607,5.6995 19.60738,10.53033 7.51081,4.8891 13.88945,7.6849 14.38683,6.30584 0.49146,-1.36261 -3.22779,-10.5943 -8.26499,-20.51485 -5.03719,-9.92055 -8.68321,-18.47667 -8.10223,-19.0136 0.58097,-0.53693 5.11175,4.86853 10.06839,12.01212 12.15665,17.52025 20.57422,26.90201 22.53049,25.11124 0.89012,-0.81477 -0.68291,-8.36741 -3.49557,-16.78364 -5.82746,-17.43718 -5.25579,-21.88145 0.94381,-7.33711 6.86142,16.09701 22.20254,38.38308 36.35349,52.81086 7.33884,7.48239 15.57932,18.28981 18.31221,24.0165 4.93158,10.33407 14.00134,18.14512 24.60067,21.1866 3.036,0.87117 5.51999,2.95499 5.51999,4.63069 0,2.99157 -13.42711,14.7868 -16.83258,14.7868 -0.95485,0 -3.69257,-3.06098 -6.08378,-6.80217 -4.56233,-7.13807 -13.88357,-9.3781 -13.88357,-3.33642 0,6.7031 15.22308,31.23645 25.97322,41.8582 9.90403,9.78571 10.32274,10.64289 4.71469,9.65209 -11.23759,-1.98539 -7.55058,5.95026 12.58238,27.08136 4.38461,4.602 9.75808,11.74427 11.94103,15.87172 3.00626,5.68413 -0.97695,2.82954 -16.42117,-11.76834 -21.42095,-20.24708 -22.50397,-22.11679 -33.89751,-58.51986 -4.0767,-13.02519 -7.29636,-18.46496 -15.03964,-25.41002 -10.81072,-9.69629 -18.4674,-12.97038 -22.22049,-9.50173 -3.58298,3.31142 1.9192,11.48531 8.80664,13.08293 3.1556,0.73198 8.10132,4.28582 10.99047,7.89746 l 5.25302,6.56659 -5.54129,3.31269 c -3.04772,1.82202 -8.69614,4.03015 -12.55207,4.90704 -6.56371,1.49265 -6.83274,1.28684 -4.21887,-3.22706 4.52232,-7.80961 -2.23588,-16.92177 -16.86374,-22.73757 -9.96738,-3.96288 -12.38653,-5.98932 -12.38653,-10.37574 0,-3.46879 -2.67646,-7.21241 -7.35999,-10.29462 -6.83924,-4.50087 -10.83604,-11.3227 -4.5202,-7.71512 1.93661,1.10617 2.40958,0.10158 1.48711,-3.15855 -0.74398,-2.62935 -0.0898,-5.27037 1.45355,-5.86892 4.40028,-1.70652 -10.159,-12.73347 -16.81244,-12.73347 -3.21846,0 -6.58932,-1.103 -7.49082,-2.4511 -0.90151,-1.34812 -4.30129,-1.83359 -7.5551,-1.07883 -3.25382,0.75476 -7.91032,0.38588 -10.34775,-0.81973 -3.32296,-1.64361 -5.41358,-1.13226 -8.35602,2.0438 -2.4738,2.67021 -5.80449,3.78143 -9.01122,3.00642 -4.19771,-1.01454 -5.08696,-0.18383 -5.08696,4.75208 0,4.12395 -1.84009,6.75638 -5.92521,8.47662 -5.50122,2.31656 -5.83172,3.40823 -4.61893,15.25626 1.81288,17.71013 5.35973,22.34852 16.1954,21.17938 6.2067,-0.66968 11.73604,0.77118 19.87393,5.17885 6.20111,3.35865 11.27473,4.94805 11.27473,3.532 0,-5.59183 -11.58559,-16.78188 -21.46663,-20.73372 -11.04045,-4.41554 -14.0044,-9.17857 -5.14776,-8.27239 3.9332,0.40242 5.76601,-1.08634 7.18976,-5.84017 3.33455,-11.13375 12.31906,-16.95118 19.68326,-12.7448 2.38447,1.36199 1.47284,2.48555 -3.40841,4.20075 -3.66496,1.2878 -6.66353,4.03069 -6.66353,6.09533 0,3.00582 1.66902,3.50355 8.37553,2.49772 5.27375,-0.79096 10.04371,-0.0878 12.87998,1.8986 4.19923,2.94102 4.04734,3.15965 -2.24222,3.22687 -7.91334,0.0845 -8.80816,3.42769 -1.83999,6.87429 5.85632,2.89665 6.45732,6.80216 1.04678,6.80216 -7.5913,0 -2.13405,7.97491 9.40192,13.73938 11.78012,5.88647 26.35122,17.33029 26.35122,20.69567 0,1.01373 -5.244,1.8588 -11.65332,1.8779 -11.23871,0.0335 -20.3338,2.90172 -17.50153,5.51934 0.7533,0.6962 10.10531,2.28846 20.78222,3.53834 34.95915,4.09243 55.55928,17.80803 70.21221,46.74745 5.79741,11.44986 7.51313,18.33882 8.25779,33.15688 0.8983,17.87559 0.79852,18.30833 -2.25309,9.7679 -4.08023,-11.41937 -8.04915,-12.61643 -10.23693,-3.08757 -4.03827,17.58888 -16.3862,49.45014 -21.05932,54.33937 -4.46272,4.66908 -4.86629,4.76011 -3.39173,0.76493 2.63676,-7.14393 4.45243,-21.54021 2.71668,-21.54021 -0.86518,0 -10.95655,4.68907 -22.42531,10.42015 -16.54462,8.26753 -24.01529,10.65135 -36.16328,11.53944 l -15.31097,1.1193 8.19283,-4.82733 c 10.89727,-6.4208 8.60491,-8.57779 -20.38652,-19.18275 -22.5189,-8.23728 -30.32353,-12.67313 -22.2977,-12.67313 2.10364,0 3.82477,-1.09557 3.82477,-2.43457 0,-4.55988 -48.97917,-55.45194 -59.34753,-61.66536 -13.77084,-8.25243 -24.74961,-8.17317 -33.85749,0.24441 -18.32902,16.93984 -8.28285,55.20345 18.26961,69.58486 13.78556,7.46659 57.31665,22.00143 60.48059,20.1942 1.34257,-0.76688 0.12691,-4.66314 -2.83852,-9.09766 -8.15303,-12.19206 -0.77169,-9.54996 14.75424,5.28116 7.50654,7.17061 20.11234,22.73058 28.01285,34.57768 7.9005,11.8471 18.09693,25.7933 22.65869,30.9914 12.07945,13.7646 10.50912,16.1261 -4.47414,6.7289 z"
         style="fill:#aad400" />
      <path
         inkscape:connector-curvature="0"
         id="path3024"
         d="m 338.18106,791.20836 c 0,-4.45103 -6.9069,-9.71393 -12.87996,-9.81426 -5.40622,-0.0907 -5.5078,3.99901 -0.23306,9.38574 5.06504,5.17268 13.11302,5.43565 13.11302,0.42852 z"
         style="fill:#aad400" />
      <path
         inkscape:connector-curvature="0"
         id="path3002"
         d="m 324.39093,762.15187 c -1.75041,-4.21579 -8.28981,-6.38702 -8.28981,-2.75239 0,3.7421 5.13334,8.45633 7.64557,7.02135 1.0744,-0.61368 1.3643,-2.53471 0.64424,-4.26896 z"
         style="fill:#aad400" />
    </g>
    <g
       id="g4720"
       transform="matrix(0.55562499,0,0,0.5799216,27.89465,258.24526)"
       inkscape:transform-center-x="153.19375"
       inkscape:transform-center-y="-362.86522">
      <g
         id="g4694"
         data-v-2b3e70a0=""
         class="text">
        <path
           id="path4682"
           data-v-2b3e70a0=""
           d="m 89.906,21.242 c 0.297,-0.756 0.405,-0.89 0.567,-0.89 0.243,0 0.324,0.324 0.568,0.836 0.432,0.972 4.236,10.446 5.693,13.928 0.865,2.05 1.512,2.347 2.025,2.508 0.35,0.11 0.702,0.136 0.945,0.136 0.135,0 0.296,0.055 0.296,0.19 0,0.134 -0.269,0.188 -0.539,0.188 -0.352,0 -2.106,0 -3.752,-0.054 -0.459,-0.027 -0.837,-0.027 -0.837,-0.162 0,-0.107 0.055,-0.107 0.163,-0.162 0.134,-0.054 0.377,-0.243 0.215,-0.621 l -2.132,-5.262 c -0.055,-0.109 -0.081,-0.135 -0.216,-0.135 h -5.479 c -0.109,0 -0.189,0.053 -0.242,0.188 l -1.35,3.671 c -0.216,0.567 -0.352,1.134 -0.352,1.538 0,0.459 0.406,0.621 0.81,0.621 h 0.217 c 0.188,0 0.242,0.081 0.242,0.19 0,0.135 -0.134,0.188 -0.351,0.188 -0.566,0 -1.862,-0.081 -2.132,-0.081 -0.244,0 -1.431,0.081 -2.402,0.081 -0.297,0 -0.459,-0.053 -0.459,-0.188 0,-0.109 0.108,-0.19 0.216,-0.19 0.162,0 0.513,-0.026 0.702,-0.054 1.079,-0.134 1.538,-0.945 1.997,-2.105 z m 2.645,9.554 c 0.108,0 0.108,-0.053 0.082,-0.161 l -2.349,-6.289 c -0.135,-0.35 -0.269,-0.35 -0.405,0 l -2.213,6.289 c -0.027,0.108 0,0.161 0.08,0.161 z"
           inkscape:connector-curvature="0" />
        <path
           id="path4684"
           data-v-2b3e70a0=""
           d="m 75.864,31.472 c 0,2.213 0,4.022 0.109,4.965 0.082,0.676 0.188,1.107 0.917,1.215 0.323,0.054 0.864,0.108 1.081,0.108 0.16,0 0.188,0.108 0.188,0.19 0,0.107 -0.109,0.188 -0.378,0.188 -1.296,0 -2.806,-0.081 -2.942,-0.081 -0.108,0 -1.754,0.081 -2.455,0.081 -0.271,0 -0.379,-0.053 -0.379,-0.188 0,-0.082 0.054,-0.163 0.189,-0.163 0.215,0 0.486,-0.053 0.701,-0.108 0.487,-0.107 0.622,-0.566 0.704,-1.242 0.106,-0.943 0.106,-2.752 0.106,-4.965 v -9.636 l -3.427,0.054 c -1.485,0.027 -2.051,0.189 -2.402,0.729 -0.271,0.405 -0.298,0.567 -0.378,0.728 -0.055,0.19 -0.135,0.216 -0.243,0.216 -0.055,0 -0.162,-0.054 -0.162,-0.188 0,-0.244 0.485,-2.294 0.512,-2.484 0.054,-0.135 0.163,-0.432 0.244,-0.432 0.162,0 0.405,0.189 1.052,0.271 0.674,0.08 1.592,0.108 1.862,0.108 h 8.961 c 0.783,0 1.323,-0.055 1.7,-0.108 0.351,-0.054 0.567,-0.109 0.676,-0.109 0.107,0 0.107,0.135 0.107,0.27 0,0.702 -0.08,2.349 -0.08,2.618 0,0.189 -0.109,0.297 -0.217,0.297 -0.107,0 -0.161,-0.08 -0.188,-0.405 L 81.694,23.159 C 81.613,22.456 81.1,21.945 78.833,21.89 l -2.969,-0.054 z"
           inkscape:connector-curvature="0" />
        <path
           id="path4686"
           data-v-2b3e70a0=""
           d="m 61.44,31.472 c 0,2.213 0,4.022 0.109,4.965 0.081,0.676 0.162,1.107 0.863,1.215 0.351,0.054 0.864,0.108 1.079,0.108 0.136,0 0.19,0.108 0.19,0.19 0,0.107 -0.108,0.188 -0.378,0.188 -1.322,0 -2.861,-0.081 -2.97,-0.081 -0.133,0 -1.618,0.081 -2.347,0.081 -0.243,0 -0.379,-0.053 -0.379,-0.188 0,-0.082 0.055,-0.19 0.19,-0.19 0.216,0 0.513,-0.054 0.728,-0.108 0.459,-0.108 0.539,-0.539 0.621,-1.215 0.109,-0.943 0.135,-2.752 0.135,-4.965 v -4.049 c 0,-3.563 0,-4.21 -0.054,-4.939 -0.054,-0.783 -0.243,-1.134 -0.755,-1.242 -0.27,-0.053 -0.567,-0.081 -0.729,-0.081 -0.108,0 -0.189,-0.108 -0.189,-0.188 0,-0.135 0.108,-0.19 0.378,-0.19 0.783,0 2.268,0.055 2.401,0.055 0.109,0 1.647,-0.055 2.376,-0.055 0.269,0 0.378,0.055 0.378,0.19 0,0.08 -0.109,0.188 -0.189,0.188 -0.162,0 -0.324,0 -0.594,0.054 -0.648,0.135 -0.783,0.459 -0.836,1.269 -0.028,0.729 -0.028,1.376 -0.028,4.939 z"
           inkscape:connector-curvature="0" />
        <path
           id="path4688"
           data-v-2b3e70a0=""
           d="m 35.04,31.525 c 0,3.374 0.053,4.751 0.486,5.155 0.378,0.378 1.295,0.54 3.158,0.54 1.241,0 2.294,-0.026 2.86,-0.702 0.298,-0.351 0.487,-0.836 0.567,-1.295 0.027,-0.162 0.109,-0.296 0.244,-0.296 0.108,0 0.161,0.108 0.161,0.35 0,0.243 -0.161,1.619 -0.351,2.295 -0.162,0.539 -0.242,0.62 -1.511,0.62 -1.7,0 -3.023,-0.028 -4.13,-0.081 -1.079,-0.026 -1.889,-0.054 -2.59,-0.054 -0.108,0 -0.514,0 -0.972,0.028 -0.486,0.026 -0.999,0.053 -1.377,0.053 -0.242,0 -0.377,-0.053 -0.377,-0.188 0,-0.082 0.053,-0.19 0.189,-0.19 0.215,0 0.512,-0.054 0.729,-0.108 0.458,-0.108 0.512,-0.539 0.62,-1.215 0.135,-0.943 0.135,-2.752 0.135,-4.965 v -4.049 c 0,-3.563 0,-4.21 -0.054,-4.939 -0.054,-0.783 -0.189,-1.16 -0.972,-1.269 -0.188,-0.026 -0.594,-0.054 -0.809,-0.054 -0.081,0 -0.189,-0.108 -0.189,-0.188 0,-0.135 0.108,-0.19 0.377,-0.19 1.081,0 2.564,0.055 2.7,0.055 0.108,0 1.889,-0.055 2.618,-0.055 0.242,0 0.377,0.055 0.377,0.19 0,0.08 -0.108,0.161 -0.188,0.161 -0.162,0 -0.513,0.027 -0.783,0.055 -0.702,0.135 -0.837,0.485 -0.891,1.295 -0.027,0.729 -0.027,1.376 -0.027,4.939 z"
           inkscape:connector-curvature="0" />
        <path
           id="path4690"
           data-v-2b3e70a0=""
           d="m 19.121,21.242 c 0.297,-0.756 0.405,-0.89 0.567,-0.89 0.243,0 0.323,0.324 0.567,0.836 0.431,0.972 4.238,10.446 5.695,13.928 0.863,2.05 1.511,2.347 2.024,2.508 0.351,0.11 0.702,0.136 0.945,0.136 0.134,0 0.296,0.055 0.296,0.19 0,0.134 -0.27,0.188 -0.539,0.188 -0.351,0 -2.106,0 -3.752,-0.054 -0.459,-0.027 -0.837,-0.027 -0.837,-0.162 0,-0.107 0.055,-0.107 0.162,-0.162 0.135,-0.054 0.378,-0.243 0.216,-0.621 l -2.132,-5.262 c -0.054,-0.109 -0.081,-0.135 -0.216,-0.135 h -5.479 c -0.108,0 -0.189,0.053 -0.243,0.188 l -1.349,3.671 c -0.217,0.567 -0.351,1.134 -0.351,1.538 0,0.459 0.404,0.621 0.809,0.621 h 0.216 c 0.189,0 0.243,0.081 0.243,0.19 0,0.135 -0.135,0.188 -0.351,0.188 -0.566,0 -1.862,-0.081 -2.131,-0.081 -0.244,0 -1.431,0.081 -2.403,0.081 -0.297,0 -0.459,-0.053 -0.459,-0.188 0,-0.109 0.108,-0.19 0.216,-0.19 0.162,0 0.513,-0.026 0.702,-0.054 1.079,-0.134 1.539,-0.945 1.997,-2.105 z m 2.645,9.554 c 0.108,0 0.108,-0.053 0.081,-0.161 L 19.5,24.346 c -0.136,-0.35 -0.27,-0.35 -0.406,0 l -2.213,6.289 c -0.027,0.108 0,0.161 0.081,0.161 z"
           inkscape:connector-curvature="0" />
        <path
           id="path4692"
           data-v-2b3e70a0=""
           d="M 0.351,37.815 C 0.027,37.652 0,37.572 0,36.95 c 0,-1.133 0.108,-2.051 0.135,-2.429 0,-0.242 0.053,-0.378 0.189,-0.378 0.135,0 0.216,0.082 0.216,0.271 0,0.189 0,0.513 0.081,0.837 0.378,1.672 2.159,2.266 3.752,2.266 2.348,0 3.562,-1.322 3.562,-3.05 0,-1.645 -0.891,-2.428 -2.996,-3.994 L 3.86,29.664 C 1.295,27.748 0.459,26.343 0.459,24.752 c 0,-2.7 2.133,-4.319 5.263,-4.319 0.945,0 1.889,0.135 2.456,0.27 0.459,0.108 0.648,0.108 0.837,0.108 0.189,0 0.243,0.027 0.243,0.162 0,0.108 -0.108,0.863 -0.108,2.428 0,0.351 -0.027,0.514 -0.189,0.514 -0.163,0 -0.189,-0.109 -0.216,-0.298 C 8.718,23.347 8.529,22.727 8.394,22.484 8.232,22.214 7.45,21.35 5.317,21.35 c -1.727,0 -3.157,0.864 -3.157,2.483 0,1.458 0.728,2.294 3.076,3.887 l 0.675,0.46 c 2.887,1.97 3.887,3.562 3.887,5.531 0,1.35 -0.513,2.807 -2.214,3.913 -0.998,0.649 -2.482,0.811 -3.778,0.811 -1.107,0 -2.484,-0.162 -3.455,-0.62 z"
           inkscape:connector-curvature="0" />
      </g>
      <g
         id="g4700"
         data-v-2b3e70a0=""
         class="pepper">
        <path
           id="path4696"
           data-v-2b3e70a0=""
           d="m 44.418,14.506 c 0,-0.173 0,-0.469 0,-0.712 -0.02,0.008 -0.041,0.012 -0.06,0.019 -0.599,0.227 -1.117,0.561 -1.558,0.974 -0.221,0.206 -0.422,0.433 -0.607,0.674 -2.221,2.282 -1.844,5.839 -0.384,8.483 0.153,0.231 0.309,0.46 0.466,0.687 0.788,1.141 1.62,2.262 2.441,3.393 0.328,0.453 0.656,0.906 0.977,1.363 3.186,3.971 6.354,9.768 4.02,14.692 -0.157,0.329 -0.34,0.653 -0.55,0.973 -1.398,2.073 -3.744,2.739 -5.895,3.508 -0.18,0.064 -0.357,0.13 -0.526,0.199 -1.129,0.633 -1.897,0.057 -2.282,1.018 1.249,-0.673 1.441,0 2.816,0.003 0.217,-0.01 0.433,-0.024 0.648,-0.038 3.221,-0.238 6.219,-1.149 8.412,-3.541 0.19,-0.21 0.367,-0.423 0.533,-0.637 0.823,-1.068 1.337,-2.149 1.611,-2.984 0.605,-1.855 0.816,-3.624 0.375,-5.663 -0.223,-1.02 -0.608,-2.108 -1.188,-3.308 -0.153,-0.357 -0.321,-0.714 -0.503,-1.07 -0.182,-0.359 -0.377,-0.715 -0.582,-1.072 -0.381,-0.79 -0.869,-1.333 -1.352,-2.135 -0.216,-0.326 -0.541,-0.663 -0.783,-1.006 -1.618,-1.937 -3.171,-3.998 -4.279,-6.296 -0.227,-0.445 -0.44,-0.902 -0.633,-1.37 -0.241,-0.894 -0.335,-1.794 -0.038,-2.625 0.212,-0.591 0.624,-1.146 1.187,-1.641 -0.765,0.006 -1.911,-1.533 -2.266,-1.888 z"
           inkscape:connector-curvature="0"
           style="fill:#e93335" />
        <path
           id="path4698"
           data-v-2b3e70a0=""
           d="m 55.633,10.226 c -1.86,0.176 -3.497,0.894 -5.123,1.624 -0.271,0.122 -0.542,0.244 -0.813,0.363 -1.335,0.689 -2.896,0.963 -4.311,1.336 -0.344,0.052 -0.666,0.136 -0.968,0.245 0,0.243 -0.229,0.689 -0.229,0.861 0.355,0.356 1.73,1.745 2.495,1.739 0.16,-0.141 0.333,-0.277 0.517,-0.408 0.036,-0.08 0.069,-0.172 0.096,-0.281 -0.027,0.109 -0.06,0.201 -0.096,0.281 0.08,-0.056 0.158,-0.112 0.242,-0.166 0.36,-0.354 0.572,-0.737 0.659,-1.281 0.446,-0.901 1.27,-1.31 2.047,-1.888 0.305,-0.199 0.619,-0.383 0.94,-0.545 1.607,-0.812 3.421,-1.105 5.072,-0.113 0.528,0.318 1.127,-0.067 1.113,-0.506 0.072,-0.702 -0.842,-1.29 -1.641,-1.261 z"
           inkscape:connector-curvature="0"
           style="fill:#31902d" />
      </g>
    </g>
    <text
       xml:space="preserve"
       style="font-style:normal;font-weight:normal;font-size:10.58333302px;line-height:1.25;font-family:sans-serif;letter-spacing:0px;word-spacing:0px;fill:#ffffff;fill-opacity:1;stroke:none;stroke-width:0.26458332"
       x="88.748817"
       y="279.99106"
       id="text4724"><tspan
         sodipodi:role="line"
         id="tspan4722"
         x="88.748817"
         y="279.99106"
         style="fill:#ffffff;fill-opacity:1;stroke-width:0.26458332">Office Plan v1.9.3</tspan></text>
    <text
       xml:space="preserve"
       style="font-style:normal;font-variant:normal;font-weight:normal;font-stretch:normal;font-size:7.76111126px;line-height:1.25;font-family:sans-serif;-inkscape-font-specification:'sans-serif, Normal';font-variant-ligatures:normal;font-variant-caps:normal;font-variant-numeric:normal;font-feature-settings:normal;text-align:start;letter-spacing:0px;word-spacing:0px;writing-mode:lr-tb;text-anchor:start;fill:#ffffff;fill-opacity:1;stroke:none;stroke-width:0.26458332"
       x="-224.63661"
       y="30.582037"
       id="text4556"
       transform="rotate(-90)"><tspan
         sodipodi:role="line"
         id="tspan4554"
         x="-224.63661"
         y="30.582037"
         style="font-style:normal;font-variant:normal;font-weight:normal;font-stretch:normal;font-size:7.76111126px;font-family:sans-serif;-inkscape-font-specification:'sans-serif, Normal';font-variant-ligatures:normal;font-variant-caps:normal;font-variant-numeric:normal;font-feature-settings:normal;text-align:start;writing-mode:lr-tb;text-anchor:start;fill:#ffffff;fill-opacity:1;stroke-width:0.26458332">Dragon's cave</tspan></text>
  </g>
</svg>
